# xmcd
#
# Track frame offsets: 
#        150
#        13965
#        29544
#        47027
#        67557
#        80362
#        96307
#        108917
#        120017
#        142122
#        153810
#        163255
#        177910
#        193667
#        203160
#        218312
#        231147
#
# Disc length: 3223 seconds
#
# Revision: 2
# Processed by: cddbd v1.5.1PL2 Copyright (c) Steve Scherf et al.
# Submitted via: ExactAudioCopy v0.95b4
#
DISCID=d80c9511
DTITLE= -
DYEAR=1900
DGENRE=
TTITLE0=001
TTITLE1=002
TTITLE2=003
TTITLE3=004
TTITLE4=005
TTITLE5=006
TTITLE6=007
TTITLE7=008
TTITLE8=009
TTITLE9=010
TTITLE10=011
TTITLE11=012
TTITLE12=013
TTITLE13=014
TTITLE14=015
TTITLE15=016
TTITLE16=017
EXTD=
EXTT0=
EXTT1=
EXTT2=
EXTT3=
EXTT4=
EXTT5=
EXTT6=
EXTT7=
EXTT8=
EXTT9=
EXTT10=
EXTT11=
EXTT12=
EXTT13=
EXTT14=
EXTT15=
EXTT16=
PLAYORDER=
